<svg width="100" height="100" viewBox="0 0 100 100" fill="none" xmlns="http://www.w3.org/2000/svg">
<path d="M2.71844 29.9698C2.68765 30.4265 2.62095 31.4886 2.55938 32.9869C2.4978 34.4853 2.44649 36.4351 2.44649 38.7031C2.44649 42.6439 2.60555 47.5494 3.17512 52.7575C3.60101 56.6675 4.25781 60.7469 5.26353 64.7287C6.01782 67.7151 6.96197 70.6501 8.16781 73.421C9.974 77.5722 12.3549 81.3693 15.5876 84.3351C17.1988 85.8129 19.0255 87.0752 21.0677 88.0296C23.1099 88.9891 25.3574 89.6357 27.7896 89.9179L27.9641 89.9333C28.8056 89.9795 29.642 90 30.4733 90C36.6307 90 42.3777 88.7582 47.6475 86.5929C52.2604 84.7046 56.5194 82.1184 60.4294 79.0654C67.2744 73.7186 73.0676 66.9505 77.9525 59.8233C85.2696 49.1298 90.5394 37.6204 94.0081 28.7537C97.4717 19.8869 99.1239 13.673 99.1445 13.596C99.5498 12.0721 98.6416 10.5019 97.1125 10.0965C95.5885 9.69117 94.0184 10.5994 93.613 12.1285C93.5925 12.2055 92.3507 16.839 89.8005 23.7199C85.9777 34.0388 79.1737 49.4223 69.2499 62.0245C64.2932 68.3257 58.5667 73.9239 52.1168 77.9057C48.8892 79.8966 45.4872 81.4924 41.8851 82.5854C38.2881 83.6835 34.491 84.2838 30.4681 84.2838C29.7446 84.2838 29.0108 84.2633 28.2668 84.2222L28.1129 87.0752L28.4413 84.2376C26.2554 83.9811 24.3671 83.3602 22.6738 82.4417C21.1909 81.6361 19.8567 80.5945 18.6355 79.3373C16.5009 77.136 14.7306 74.2523 13.3144 70.9426C11.185 65.9756 9.87137 60.0798 9.11708 54.3482C8.36279 48.6167 8.15242 43.0493 8.15242 38.7031C8.15242 36.5275 8.20372 34.6546 8.26017 33.223C8.31661 31.7862 8.38332 30.7959 8.41411 30.3444C8.51673 28.7691 7.32116 27.4093 5.74587 27.3067C4.17058 27.204 2.81081 28.3996 2.70819 29.9749L2.71844 29.9698Z" fill="#E119A0"/>
<path d="M2.59522 29.7339C2.57983 29.8314 2 33.9775 2 39.8014C2 43.1726 2.19499 47.1083 2.82613 51.1671C3.2982 54.2099 4.01657 57.3194 5.10439 60.3161C5.92026 62.5635 6.94137 64.7443 8.23957 66.7711C10.1792 69.8088 12.7602 72.513 16.1006 74.4269C19.4359 76.346 23.4947 77.4287 28.1949 77.4236C32.9054 77.4236 37.3644 76.4486 41.495 74.7759C48.7403 71.8357 54.9953 66.8019 60.3523 61.0036C68.3827 52.296 74.4427 41.8026 78.5476 33.4592C82.6475 25.1158 84.7769 18.9224 84.8077 18.8403C85.3465 17.2702 84.5101 15.5564 82.94 15.0176C81.3698 14.4788 79.656 15.3152 79.1172 16.8853L79.579 17.0444L79.1172 16.8853L79.579 17.0444L79.1172 16.8853C79.1018 16.9315 77.8908 20.4413 75.5613 25.6597C72.0772 33.4849 66.048 45.1584 57.915 54.6871C53.8562 59.454 49.274 63.6719 44.3018 66.6531C41.8132 68.1463 39.2322 69.3316 36.5485 70.1475C33.8701 70.9634 31.0941 71.4046 28.1949 71.4046C25.9474 71.4046 23.9976 71.107 22.294 70.5836C20.8008 70.127 19.4924 69.501 18.3173 68.7261C16.2648 67.3766 14.5972 65.5704 13.2271 63.3948C11.1746 60.1416 9.83538 56.0571 9.05544 51.8649C8.26523 47.6778 8.02406 43.4035 8.02406 39.8014C8.02406 37.0921 8.16261 34.7574 8.29602 33.1154C8.36272 32.2944 8.42943 31.6479 8.48074 31.2117C8.5064 30.9911 8.52692 30.8269 8.54231 30.7191C8.54745 30.6627 8.55258 30.6268 8.55771 30.6011V30.5755L7.54685 30.4369L8.55771 30.5806L7.54685 30.4369L8.55771 30.5806C8.78861 28.9335 7.64435 27.4146 5.99722 27.1786C4.3501 26.9426 2.83126 28.092 2.59522 29.7391V29.7339Z" fill="#00AEFF"/>
<path d="M2.56454 30.134V30.2058C2.56454 30.6522 2.58506 32.9151 2.96477 36.0913C3.25212 38.4773 3.73959 41.3765 4.5965 44.4347C5.2379 46.7232 6.08456 49.099 7.22369 51.408C8.07548 53.1373 9.09659 54.8306 10.3178 56.4058C12.1548 58.7662 14.469 60.8751 17.3476 62.3786C20.2211 63.882 23.6334 64.7544 27.5023 64.7492C30.8171 64.7492 33.9625 64.0924 36.8719 62.9687C41.9724 60.9983 46.3647 57.6425 50.1156 53.8094C55.7394 48.0471 59.9727 41.161 62.8513 35.6911C65.7299 30.2212 67.2334 26.1624 67.2642 26.0752C67.844 24.5153 67.0487 22.786 65.4888 22.2062C63.9289 21.6264 62.1996 22.4217 61.6198 23.9816C61.5942 24.0586 60.7372 26.342 59.1209 29.7029C56.7041 34.7469 52.5581 42.2129 47.0779 48.2472C44.343 51.2644 41.2796 53.9172 38.0008 55.7747C34.7117 57.6373 31.243 58.72 27.4972 58.72C25.1368 58.72 23.1561 58.3147 21.4423 57.6373C19.944 57.0421 18.6355 56.2314 17.4656 55.2359C15.4234 53.5016 13.7917 51.1771 12.5345 48.5859C10.6462 44.7015 9.61997 40.2527 9.11198 36.7019C8.59886 33.1511 8.57834 30.5085 8.57834 30.2058V30.175C8.5886 28.5125 7.25448 27.1579 5.59196 27.1425C3.92944 27.1271 2.5748 28.4663 2.5594 30.1288L2.56454 30.134Z" fill="#FFA000"/>
</svg>
