<svg width="193" height="42" viewBox="0 0 193 42" fill="none" xmlns="http://www.w3.org/2000/svg">
<path d="M5.40014 40.0514V17.5408H1V11.7123H5.40014V10.0542C5.40014 4.57008 9.39839 0.629242 15.7988 0.629242H19.0553V6.22817H16.0836C13.1119 6.22817 11.7408 7.6566 11.7408 10.2838V11.7123H19.5123V17.5408H11.7408V40.0514H5.40014Z" fill="#6E00BE"/>
<path d="M20.2541 25.8818C20.2541 17.5983 26.8244 11.1404 35.2228 11.1404C43.6212 11.1404 50.1341 17.596 50.1341 25.8818C50.1341 34.1677 43.5638 40.6232 35.2228 40.6232C26.8818 40.6232 20.2541 34.1677 20.2541 25.8818ZM43.7934 25.8818C43.7934 20.7973 40.1948 17.0838 35.2228 17.0838C30.2508 17.0838 26.5948 20.7973 26.5948 25.8818C26.5948 30.9663 30.2508 34.6798 35.2228 34.6798C40.1948 34.6798 43.7934 30.9663 43.7934 25.8818Z" fill="#6E00BE"/>
<path d="M96.4963 40.0514V11.7123H102.552V14.6266C104.38 12.4564 107.295 11.1404 110.893 11.1404C117.863 11.1404 122.835 16.1124 122.835 23.939V40.0514H116.494V24.5108C116.494 19.8833 113.98 17.1413 109.867 17.1413C105.754 17.1413 102.839 19.9981 102.839 24.5108V40.0514H96.4963Z" fill="#6E00BE"/>
<path d="M126.721 25.8818C126.721 17.5983 132.892 11.1404 141.005 11.1404C144.834 11.1404 148.09 12.6263 150.203 15.1961V0.629242H156.546V40.0514H150.49V36.2805C148.432 39.0225 145.006 40.6232 141.005 40.6232C132.892 40.6232 126.721 34.1677 126.721 25.8818ZM150.26 25.8818C150.26 20.7973 146.662 17.0838 141.69 17.0838C136.718 17.0838 133.062 20.7973 133.062 25.8818C133.062 30.9663 136.718 34.6224 141.69 34.6224C146.662 34.6224 150.26 30.9663 150.26 25.8818Z" fill="#6E00BE"/>
<path d="M162.257 3.65607C162.257 1.54326 163.801 0 165.913 0C168.026 0 169.569 1.54326 169.569 3.65607C169.569 5.76887 168.026 7.25472 165.913 7.25472C163.801 7.25472 162.257 5.71146 162.257 3.65607ZM162.714 40.0514V11.7123H169.057V40.0514H162.714Z" fill="#6E00BE"/>
<path d="M186.883 40.0514C180.427 40.0514 177.341 37.2519 177.341 31.3659V17.5386H172.656V11.71H175.912C176.769 11.71 177.341 11.1381 177.341 10.1093V4.6275H183.684V11.7123H191.226V17.5409H183.684V30.739C183.684 32.9666 184.77 34.1103 187.34 34.1103H191.226V40.0514H186.883Z" fill="#6E00BE"/>
<path d="M52.5087 14.9113C52.495 15.1157 52.4651 15.591 52.4375 16.2616C52.41 16.9322 52.387 17.8049 52.387 18.82C52.387 20.5837 52.4582 22.7792 52.7131 25.1101C52.9037 26.8601 53.1977 28.6858 53.6478 30.4679C53.9854 31.8045 54.408 33.1181 54.9476 34.3582C55.756 36.2161 56.8216 37.9156 58.2684 39.2429C58.9895 39.9043 59.8071 40.4693 60.7211 40.8964C61.6351 41.3259 62.641 41.6153 63.7296 41.7416L63.8076 41.7485C64.1843 41.7691 64.5586 41.7783 64.9306 41.7783C67.6865 41.7783 70.2586 41.2225 72.6171 40.2534C74.6817 39.4083 76.5878 38.2508 78.3377 36.8844C81.4013 34.4914 83.9941 31.4623 86.1804 28.2725C89.4552 23.4865 91.8137 18.3354 93.3662 14.367C94.9164 10.3986 95.6558 7.61751 95.665 7.58307C95.8464 6.901 95.44 6.19826 94.7556 6.01684C94.0735 5.83541 93.3708 6.2419 93.1894 6.92626C93.1802 6.96071 92.6244 9.03447 91.483 12.1141C89.7721 16.7324 86.7269 23.6174 82.2855 29.2577C80.067 32.0778 77.5041 34.5833 74.6174 36.3654C73.1729 37.2565 71.6503 37.9707 70.0381 38.4598C68.4282 38.9513 66.7288 39.22 64.9283 39.22C64.6045 39.22 64.2761 39.2108 63.9431 39.1924L63.8742 40.4693L64.0212 39.1993C63.0429 39.0845 62.1978 38.8066 61.4399 38.3955C60.7762 38.035 60.1791 37.5688 59.6326 37.0061C58.6772 36.0209 57.8849 34.7303 57.2511 33.249C56.298 31.026 55.7101 28.3873 55.3725 25.8221C55.0349 23.2568 54.9408 20.7651 54.9408 18.82C54.9408 17.8462 54.9637 17.008 54.989 16.3673C55.0142 15.7242 55.0441 15.281 55.0579 15.0789C55.1038 14.3739 54.5687 13.7653 53.8637 13.7194C53.1587 13.6734 52.5501 14.2085 52.5041 14.9136L52.5087 14.9113Z" fill="#E119A0"/>
<path d="M52.4536 14.8057C52.4467 14.8494 52.1872 16.705 52.1872 19.3115C52.1872 20.8203 52.2745 22.5818 52.557 24.3983C52.7682 25.7601 53.0898 27.1518 53.5766 28.493C53.9418 29.4989 54.3988 30.4749 54.9798 31.382C55.8479 32.7416 57.003 33.9518 58.4981 34.8085C59.9908 35.6674 61.8074 36.1519 63.911 36.1496C66.0192 36.1496 68.0149 35.7133 69.8636 34.9646C73.1063 33.6487 75.9057 31.3958 78.3033 28.8007C81.8974 24.9035 84.6096 20.2072 86.4468 16.473C88.2817 12.7389 89.2347 9.96695 89.2485 9.93021C89.4897 9.22747 89.1153 8.46043 88.4126 8.2193C87.7099 7.97816 86.9428 8.35249 86.7017 9.05523L86.9084 9.12642L86.7017 9.05523L86.9084 9.12642L86.7017 9.05523C86.6948 9.0759 86.1528 10.6467 85.1102 12.9823C83.5509 16.4845 80.8524 21.7091 77.2124 25.9737C75.3959 28.1072 73.3451 29.9949 71.1198 31.3292C70.006 31.9975 68.8508 32.528 67.6497 32.8931C66.4509 33.2583 65.2085 33.4558 63.911 33.4558C62.9051 33.4558 62.0324 33.3226 61.27 33.0884C60.6017 32.884 60.0161 32.6038 59.4902 32.257C58.5716 31.653 57.8252 30.8447 57.212 29.8709C56.2934 28.4149 55.694 26.5869 55.3449 24.7106C54.9913 22.8367 54.8833 20.9237 54.8833 19.3115C54.8833 18.0989 54.9454 17.054 55.0051 16.3191C55.0349 15.9517 55.0648 15.6623 55.0877 15.4671C55.0992 15.3684 55.1084 15.2949 55.1153 15.2467C55.1176 15.2214 55.1199 15.2053 55.1222 15.1938V15.1824L54.6698 15.1203L55.1222 15.1847L54.6698 15.1203L55.1222 15.1847C55.2255 14.4475 54.7134 13.7677 53.9762 13.6621C53.239 13.5564 52.5593 14.0708 52.4536 14.808V14.8057Z" fill="#00AEFF"/>
<path d="M52.4399 14.9848V15.0169C52.4399 15.2167 52.449 16.2295 52.619 17.651C52.7476 18.7189 52.9658 20.0164 53.3493 21.3852C53.6363 22.4094 54.0153 23.4727 54.5251 24.5061C54.9063 25.2801 55.3633 26.0379 55.9099 26.743C56.7321 27.7994 57.7678 28.7432 59.0561 29.4161C60.3422 30.089 61.8694 30.4794 63.601 30.4771C65.0845 30.4771 66.4923 30.1832 67.7944 29.6802C70.0772 28.7984 72.043 27.2964 73.7217 25.5809C76.2387 23.0019 78.1334 19.92 79.4217 17.4719C80.7101 15.0238 81.3829 13.2073 81.3967 13.1682C81.6562 12.4701 81.3003 11.6961 80.6021 11.4366C79.904 11.1771 79.1301 11.5331 78.8706 12.2312C78.8591 12.2657 78.4755 13.2876 77.7521 14.7919C76.6705 17.0493 74.8149 20.3908 72.3622 23.0915C71.1382 24.4418 69.7671 25.6291 68.2997 26.4605C66.8276 27.2941 65.2751 27.7787 63.5987 27.7787C62.5423 27.7787 61.6558 27.5973 60.8888 27.2941C60.2182 27.0277 59.6326 26.6649 59.109 26.2194C58.1949 25.4431 57.4647 24.4028 56.902 23.2431C56.0569 21.5046 55.5976 19.5135 55.3702 17.9243C55.1406 16.3351 55.1314 15.1524 55.1314 15.0169V15.0031C55.136 14.2591 54.5389 13.6528 53.7948 13.6459C53.0507 13.639 52.4445 14.2384 52.4376 14.9825L52.4399 14.9848Z" fill="#FFA000"/>
</svg>
